#Comment line ignore any data following # character 
#Hierarchical Translation and Rotation (.htr) file 
[Header]	
#Header keywords are followed by a single value 
FileType HTR		#Single word string
DataType HTRS		#Translation followed by rotation and scale data
FileVersion 1		#integer
NumSegments 84		#integer
NumFrames 2		#integer
DataFrameRate 30		#integer, data frame rate in this file
EulerRotationOrder ZYX
CalibrationUnits mm
RotationUnits Degrees
GlobalAxisofGravity Y
BoneLengthAxis Y
ScaleFactor 1.00
[SegmentNames&Hierarchy]
#CHILD	PARENT
MASTER GLOBAL
root MASTER
chest root
L_mid_tent01 root
R_mid_tent01 root
spine01 root
Bip01_Neck chest
L_humerus chest
R_humerus chest
weapon_bone chest
Bip01_Head Bip01_Neck
eye_left_bone Bip01_Head
eye_right_bone Bip01_Head
L_forearm L_humerus
L_front_hand L_forearm
L_weapon_bone L_forearm
L_front_hand01_01 L_front_hand
L_front_hand02_01 L_front_hand
L_front_hand03_01 L_front_hand
L_front_hand01_02 L_front_hand01_01
L_front_hand02_02 L_front_hand02_01
L_front_hand03_02 L_front_hand03_01
R_forearm R_humerus
R_front_hand R_forearm
R_weapon_bone R_forearm
R_front_hand01_01 R_front_hand
R_front_hand02_01 R_front_hand
R_front_hand03_01 R_front_hand
R_front_hand01_02 R_front_hand01_01
R_front_hand02_02 R_front_hand02_01
R_front_hand03_02 R_front_hand03_01
null_rope01_connect L_mid_tent01
Rope1_Seg01 null_rope01_connect
Rope1_Seg02 Rope1_Seg01
Rope1_Seg03 Rope1_Seg02
Rope1_Seg04 Rope1_Seg03
Rope1_Seg05 Rope1_Seg04
Rope1_Seg06 Rope1_Seg05
Rope1_Seg07 Rope1_Seg06
Rope1_Seg09 Rope1_Seg07
L_mid_hand01 Rope1_Seg09
L_mid_hand02 Rope1_Seg09
L_mid_hand03 Rope1_Seg09
null_rope02_connect R_mid_tent01
Rope2_Seg01 null_rope02_connect
Rope2_Seg02 Rope2_Seg01
Rope2_Seg03 Rope2_Seg02
Rope2_Seg04 Rope2_Seg03
Rope2_Seg05 Rope2_Seg04
Rope2_Seg06 Rope2_Seg05
Rope2_Seg07 Rope2_Seg06
Rope2_Seg09 Rope2_Seg07
R_mid_hand01 Rope2_Seg09
R_mid_hand02 Rope2_Seg09
R_mid_hand03 Rope2_Seg09
spine02 spine01
spine03 spine02
pelvis spine03
null_rope03_connect pelvis
null_rope04_connect pelvis
Rope3_Seg01 null_rope03_connect
Rope3_Seg02 Rope3_Seg01
Rope3_Seg03 Rope3_Seg02
Rope3_Seg04 Rope3_Seg03
Rope3_Seg05 Rope3_Seg04
Rope3_Seg06 Rope3_Seg05
Rope3_Seg07 Rope3_Seg06
Rope3_Seg08 Rope3_Seg07
Rope3_Seg09 Rope3_Seg08
R_rear_hand01 Rope3_Seg09
R_rear_hand02 Rope3_Seg09
R_rear_hand03 Rope3_Seg09
Rope4_Seg01 null_rope04_connect
Rope4_Seg02 Rope4_Seg01
Rope4_Seg03 Rope4_Seg02
Rope4_Seg04 Rope4_Seg03
Rope4_Seg05 Rope4_Seg04
Rope4_Seg06 Rope4_Seg05
Rope4_Seg07 Rope4_Seg06
Rope4_Seg08 Rope4_Seg07
Rope4_Seg09 Rope4_Seg08
L_rear_hand01 Rope4_Seg09
L_rear_hand02 Rope4_Seg09
L_rear_hand03 Rope4_Seg09
[BasePosition]
#SegmentName Tx, Ty, Tz, Rx, Ry, Rz, BoneLength
MASTER 0.000000 0.000000 0.000000 -90.000000 0.000000 0.000000 10.000000 
root 0.000000 0.000000 0.000000 0.000000 0.000000 0.000000 10.000000 
chest 0.000000 0.000000 0.000000 0.000000 0.000000 0.000000 10.000000 
L_mid_tent01 0.000000 0.000000 0.000000 0.000000 0.000000 0.000000 10.000000 
R_mid_tent01 0.000000 0.000000 0.000000 0.000000 0.000000 0.000000 10.000000 
spine01 0.000000 0.000000 0.000000 0.000000 0.000000 0.000000 10.000000 
Bip01_Neck 0.000000 0.000000 0.000000 0.000000 0.000000 0.000000 10.000000 
L_humerus 0.000000 0.000000 0.000000 0.000000 0.000000 0.000000 10.000000 
R_humerus 0.000000 0.000000 0.000000 0.000000 0.000000 0.000000 10.000000 
weapon_bone 0.000000 0.000000 0.000000 0.000000 0.000000 0.000000 10.000000 
Bip01_Head 0.000000 0.000000 0.000000 0.000000 0.000000 0.000000 10.000000 
eye_left_bone 0.000000 0.000000 0.000000 0.000000 0.000000 0.000000 10.000000 
eye_right_bone 0.000000 0.000000 0.000000 0.000000 0.000000 0.000000 10.000000 
L_forearm 0.000000 0.000000 0.000000 0.000000 0.000000 0.000000 10.000000 
L_front_hand 0.000000 0.000000 0.000000 0.000000 0.000000 0.000000 10.000000 
L_weapon_bone 0.000000 0.000000 0.000000 0.000000 0.000000 0.000000 10.000000 
L_front_hand01_01 0.000000 0.000000 0.000000 0.000000 0.000000 0.000000 10.000000 
L_front_hand02_01 0.000000 0.000000 0.000000 0.000000 0.000000 0.000000 10.000000 
L_front_hand03_01 0.000000 0.000000 0.000000 0.000000 0.000000 0.000000 10.000000 
L_front_hand01_02 0.000000 0.000000 0.000000 0.000000 0.000000 0.000000 10.000000 
L_front_hand02_02 0.000000 0.000000 0.000000 0.000000 0.000000 0.000000 10.000000 
L_front_hand03_02 0.000000 0.000000 0.000000 0.000000 0.000000 0.000000 10.000000 
R_forearm 0.000000 0.000000 0.000000 0.000000 0.000000 0.000000 10.000000 
R_front_hand 0.000000 0.000000 0.000000 0.000000 0.000000 0.000000 10.000000 
R_weapon_bone 0.000000 0.000000 0.000000 0.000000 0.000000 0.000000 10.000000 
R_front_hand01_01 0.000000 0.000000 0.000000 0.000000 0.000000 0.000000 10.000000 
R_front_hand02_01 0.000000 0.000000 0.000000 0.000000 0.000000 0.000000 10.000000 
R_front_hand03_01 0.000000 0.000000 0.000000 0.000000 0.000000 0.000000 10.000000 
R_front_hand01_02 0.000000 0.000000 0.000000 0.000000 0.000000 0.000000 10.000000 
R_front_hand02_02 0.000000 0.000000 0.000000 0.000000 0.000000 0.000000 10.000000 
R_front_hand03_02 0.000000 0.000000 0.000000 0.000000 0.000000 0.000000 10.000000 
null_rope01_connect 0.000000 0.000000 0.000000 0.000000 0.000000 0.000000 10.000000 
Rope1_Seg01 0.000000 0.000000 0.000000 0.000000 0.000000 0.000000 10.000000 
Rope1_Seg02 0.000000 0.000000 0.000000 0.000000 0.000000 0.000000 10.000000 
Rope1_Seg03 0.000000 0.000000 0.000000 0.000000 0.000000 0.000000 10.000000 
Rope1_Seg04 0.000000 0.000000 0.000000 0.000000 0.000000 0.000000 10.000000 
Rope1_Seg05 0.000000 0.000000 0.000000 0.000000 0.000000 0.000000 10.000000 
Rope1_Seg06 0.000000 0.000000 0.000000 0.000000 0.000000 0.000000 10.000000 
Rope1_Seg07 0.000000 0.000000 0.000000 0.000000 0.000000 0.000000 10.000000 
Rope1_Seg09 0.000000 0.000000 0.000000 0.000000 0.000000 0.000000 10.000000 
L_mid_hand01 0.000000 0.000000 0.000000 0.000000 0.000000 0.000000 10.000000 
L_mid_hand02 0.000000 0.000000 0.000000 0.000000 0.000000 0.000000 10.000000 
L_mid_hand03 0.000000 0.000000 0.000000 0.000000 0.000000 0.000000 10.000000 
null_rope02_connect 0.000000 0.000000 0.000000 0.000000 0.000000 0.000000 10.000000 
Rope2_Seg01 0.000000 0.000000 0.000000 0.000000 0.000000 0.000000 10.000000 
Rope2_Seg02 0.000000 0.000000 0.000000 0.000000 0.000000 0.000000 10.000000 
Rope2_Seg03 0.000000 0.000000 0.000000 0.000000 0.000000 0.000000 10.000000 
Rope2_Seg04 0.000000 0.000000 0.000000 0.000000 0.000000 0.000000 10.000000 
Rope2_Seg05 0.000000 0.000000 0.000000 0.000000 0.000000 0.000000 10.000000 
Rope2_Seg06 0.000000 0.000000 0.000000 0.000000 0.000000 0.000000 10.000000 
Rope2_Seg07 0.000000 0.000000 0.000000 0.000000 0.000000 0.000000 10.000000 
Rope2_Seg09 0.000000 0.000000 0.000000 0.000000 0.000000 0.000000 10.000000 
R_mid_hand01 0.000000 0.000000 0.000000 0.000000 0.000000 0.000000 10.000000 
R_mid_hand02 0.000000 0.000000 0.000000 0.000000 0.000000 0.000000 10.000000 
R_mid_hand03 0.000000 0.000000 0.000000 0.000000 0.000000 0.000000 10.000000 
spine02 0.000000 0.000000 0.000000 0.000000 0.000000 0.000000 10.000000 
spine03 0.000000 0.000000 0.000000 0.000000 0.000000 0.000000 10.000000 
pelvis 0.000000 0.000000 0.000000 0.000000 0.000000 0.000000 10.000000 
null_rope03_connect 0.000000 0.000000 0.000000 0.000000 0.000000 0.000000 10.000000 
null_rope04_connect 0.000000 0.000000 0.000000 0.000000 0.000000 0.000000 10.000000 
Rope3_Seg01 0.000000 0.000000 0.000000 0.000000 0.000000 0.000000 10.000000 
Rope3_Seg02 0.000000 0.000000 0.000000 0.000000 0.000000 0.000000 10.000000 
Rope3_Seg03 0.000000 0.000000 0.000000 0.000000 0.000000 0.000000 10.000000 
Rope3_Seg04 0.000000 0.000000 0.000000 0.000000 0.000000 0.000000 10.000000 
Rope3_Seg05 0.000000 0.000000 0.000000 0.000000 0.000000 0.000000 10.000000 
Rope3_Seg06 0.000000 0.000000 0.000000 0.000000 0.000000 0.000000 10.000000 
Rope3_Seg07 0.000000 0.000000 0.000000 0.000000 0.000000 0.000000 10.000000 
Rope3_Seg08 0.000000 0.000000 0.000000 0.000000 0.000000 0.000000 10.000000 
Rope3_Seg09 0.000000 0.000000 0.000000 0.000000 0.000000 0.000000 10.000000 
R_rear_hand01 0.000000 0.000000 0.000000 0.000000 0.000000 0.000000 10.000000 
R_rear_hand02 0.000000 0.000000 0.000000 0.000000 0.000000 0.000000 10.000000 
R_rear_hand03 0.000000 0.000000 0.000000 0.000000 0.000000 0.000000 10.000000 
Rope4_Seg01 0.000000 0.000000 0.000000 0.000000 0.000000 0.000000 10.000000 
Rope4_Seg02 0.000000 0.000000 0.000000 0.000000 0.000000 0.000000 10.000000 
Rope4_Seg03 0.000000 0.000000 0.000000 0.000000 0.000000 0.000000 10.000000 
Rope4_Seg04 0.000000 0.000000 0.000000 0.000000 0.000000 0.000000 10.000000 
Rope4_Seg05 0.000000 0.000000 0.000000 0.000000 0.000000 0.000000 10.000000 
Rope4_Seg06 0.000000 0.000000 0.000000 0.000000 0.000000 0.000000 10.000000 
Rope4_Seg07 0.000000 0.000000 0.000000 0.000000 0.000000 0.000000 10.000000 
Rope4_Seg08 0.000000 0.000000 0.000000 0.000000 0.000000 0.000000 10.000000 
Rope4_Seg09 0.000000 0.000000 0.000000 0.000000 0.000000 0.000000 10.000000 
L_rear_hand01 0.000000 0.000000 0.000000 0.000000 0.000000 0.000000 10.000000 
L_rear_hand02 0.000000 0.000000 0.000000 0.000000 0.000000 0.000000 10.000000 
L_rear_hand03 0.000000 0.000000 0.000000 0.000000 0.000000 0.000000 10.000000 
#Beginning of Data. Separated by tabs
#Fr	Tx	Ty	Tz	Rx	Ry	Rz	SF
[MASTER]
12 0.000000 0.000000 0.000000 0.001660 0.001660 0.001660 0.000000
13 0.000000 0.000000 0.000000 0.001660 0.001660 0.001660 0.000000
[root]
12 -111.618240 -62.822132 710.331726 -85.246590 -2.459524 -90.742683 721.786987
13 -100.585548 -62.822132 648.510376 -84.990829 -2.336842 -90.921555 659.264587
[chest]
12 -76.559204 46.012573 -58.739513 -0.496995 2.947157 173.337509 106.905563
13 -76.881516 42.766571 -56.359173 -0.260671 1.867681 170.625153 104.480156
[L_mid_tent01]
12 27.001966 22.347988 -248.006256 4.537813 12.808404 98.324692 250.470840
13 27.054668 22.317795 -248.344910 3.581738 13.811134 98.136520 250.809174
[R_mid_tent01]
12 23.228794 24.509907 226.238495 164.598434 -20.409822 108.746841 228.744751
13 23.228794 24.509907 226.238495 162.729996 -15.220590 116.964737 228.744751
[spine01]
12 -0.361383 -0.195265 0.000000 -0.000001 -0.000007 22.052340 0.410763
13 -0.361383 -0.195265 0.000000 -0.000001 -0.000007 22.052340 0.410763
[Bip01_Neck]
12 165.484543 71.581718 0.000119 175.896118 1.177290 24.871183 180.302734
13 165.484543 71.581718 0.000119 175.896118 1.177290 24.871180 180.302734
[L_humerus]
12 -13.983130 -135.272980 -120.471481 -16.694344 16.249079 -121.371628 181.680161
13 -13.983130 -135.272980 -120.471481 -10.334778 13.894998 -111.754807 181.680161
[R_humerus]
12 -13.983309 -135.273102 125.287651 21.012676 -24.359768 -120.780899 184.909012
13 -13.983309 -135.273102 125.287651 12.794405 -21.756063 -109.497482 184.909012
[weapon_bone]
12 235.964890 -300.705902 0.000000 0.000000 -89.951546 -128.212341 382.234833
13 235.964890 -300.705902 0.000000 0.000000 -89.951546 -128.212341 382.234833
[Bip01_Head]
12 174.090363 116.932770 5.578184 4.312995 -3.481326 -26.724218 209.789993
13 174.216888 122.896034 5.163479 4.824320 -2.716066 -27.227825 213.264191
[eye_left_bone]
12 -24.626970 125.451866 -64.772606 0.000000 -90.000000 -99.840431 143.318359
13 -24.626970 125.451866 -64.772606 0.000000 -90.000000 -99.840431 143.318359
[eye_right_bone]
12 -24.626970 125.451866 64.327362 0.000000 -89.960434 80.159386 143.117676
13 -24.626970 125.451866 64.327362 0.000000 -89.960434 80.159386 143.117676
[L_forearm]
12 322.776093 0.000000 -0.000119 0.000999 -0.002124 -140.373169 322.776093
13 322.776093 0.000000 -0.000119 0.001055 -0.002097 -143.418442 322.776093
[L_front_hand]
12 241.149185 -0.042021 -3.300071 -168.907669 -1.157735 -27.650997 241.171753
13 241.149185 -0.042021 -3.300071 -169.379379 -1.839107 -21.312061 241.171753
[L_weapon_bone]
12 156.183838 0.000000 0.000000 0.000014 0.000007 0.000001 156.183838
13 156.183838 0.000000 0.000000 0.000014 0.000007 0.000001 156.183838
[L_front_hand01_01]
12 86.095154 20.947098 -0.655860 0.404638 -0.443173 -4.375489 88.609184
13 86.095154 20.947098 -0.655860 0.404992 -0.442849 -4.467050 88.609184
[L_front_hand02_01]
12 86.935165 -11.437475 24.513514 116.955383 3.409097 1.384526 91.046425
13 86.935165 -11.437475 24.513514 116.958710 3.489242 1.425460 91.046425
[L_front_hand03_01]
12 86.637497 -14.123976 -20.424902 -118.412041 -4.445712 -0.269331 90.126129
13 86.637497 -14.123976 -20.424902 -118.414665 -4.526645 -0.225279 90.126129
[L_front_hand01_02]
12 71.020905 -0.000179 0.000030 0.001534 0.001777 -8.378850 71.020905
13 71.020905 -0.000179 0.000030 0.001534 0.001777 -8.378850 71.020905
[L_front_hand02_02]
12 71.020927 -0.000119 0.000060 0.001534 0.001777 -8.378850 71.020927
13 71.020927 -0.000119 0.000060 0.001534 0.001777 -8.378850 71.020927
[L_front_hand03_02]
12 71.020905 -0.000060 0.000060 0.001534 0.001777 -8.378850 71.020905
13 71.020905 -0.000060 0.000060 0.001534 0.001777 -8.378850 71.020905
[R_forearm]
12 322.776428 -0.000060 0.000030 0.138667 0.164228 -140.971603 322.776428
13 322.776428 -0.000060 0.000030 0.124281 0.171322 -144.396088 322.776428
[R_front_hand]
12 238.847015 -0.006795 2.210259 -12.341304 1.142291 -33.733505 238.857239
13 238.847015 -0.006795 2.210259 -11.767605 1.958463 -26.583504 238.857239
[R_weapon_bone]
12 155.664093 0.002503 -0.000030 0.003487 0.001180 -90.988930 155.664078
13 155.664093 0.002503 -0.000030 0.003487 0.001180 -90.988930 155.664078
[R_front_hand01_01]
12 87.624611 14.231146 22.918642 -116.953575 3.333791 -1.238063 91.683487
13 87.624611 14.231146 22.918642 -116.956749 3.384945 -1.264830 91.683487
[R_front_hand02_01]
12 89.356956 14.367283 -19.491137 118.414810 -4.095229 0.697878 92.579636
13 89.356956 14.367283 -19.491137 118.417366 -4.146081 0.670484 92.579636
[R_front_hand03_01]
12 87.286232 -22.307278 -0.143439 -0.387599 -0.232081 4.048887 90.091743
13 87.286232 -22.307278 -0.143439 -0.387715 -0.231889 4.105802 90.091743
[R_front_hand01_02]
12 71.020905 0.000060 0.000119 0.001777 0.001534 8.377220 71.020905
13 71.020905 0.000060 0.000119 0.001777 0.001534 8.377220 71.020905
[R_front_hand02_02]
12 71.020844 -0.000030 -0.000119 0.001777 0.001534 8.377220 71.020836
13 71.020844 -0.000030 -0.000119 0.001777 0.001534 8.377220 71.020836
[R_front_hand03_02]
12 71.020905 0.000000 0.000030 0.001777 0.001534 8.377220 71.020905
13 71.020905 0.000000 0.000030 0.001777 0.001534 8.377220 71.020905
[null_rope01_connect]
12 328.732483 0.000000 -0.000238 -155.958557 -80.760414 150.438660 328.732483
13 328.732483 0.000000 -0.000238 -162.283585 -80.459785 156.773041 328.732483
[Rope1_Seg01]
12 -0.000031 0.000024 0.000097 129.144623 -34.514866 126.199341 0.000104
13 -0.000031 0.000023 0.000092 133.234055 -37.751339 122.528244 0.000099
[Rope1_Seg02]
12 139.999863 -0.000179 0.000000 -4.069329 -5.624422 -3.470467 139.999863
13 139.999863 -0.000179 0.000000 -3.878438 -4.757493 -2.804210 139.999863
[Rope1_Seg03]
12 139.999924 0.000060 -0.000060 -6.661063 -8.674661 -6.322951 139.999924
13 139.999924 0.000060 -0.000060 -6.316231 -7.255025 -5.009310 139.999924
[Rope1_Seg04]
12 139.999924 -0.000060 -0.000119 -10.957378 -14.644221 -11.970110 139.999924
13 139.999924 -0.000060 -0.000119 -11.239415 -12.861228 -10.072680 139.999924
[Rope1_Seg05]
12 139.999832 0.000119 -0.000060 -10.374929 -13.912186 -20.648563 139.999832
13 139.999832 0.000119 -0.000060 -13.415319 -16.087284 -18.885237 139.999832
[Rope1_Seg06]
12 139.999954 0.000119 -0.000060 -4.394055 -1.272444 -26.997217 139.999954
13 139.999954 0.000119 -0.000060 -6.406404 -0.355535 -29.330458 139.999954
[Rope1_Seg07]
12 139.999985 0.000060 0.000000 0.660503 0.572714 -19.631956 139.999985
13 139.999985 0.000060 0.000000 0.199028 6.126811 -31.650885 139.999985
[Rope1_Seg09]
12 121.602913 0.000119 -0.000089 -89.793175 -1.359789 0.847147 121.602913
13 121.602913 0.000119 -0.000089 -89.793175 -1.359789 0.847147 121.602913
[L_mid_hand01]
12 103.859421 1.038730 8.195221 111.729988 -47.960354 -17.021183 104.187431
13 103.859421 1.038730 8.195221 108.272957 -37.750458 -11.960754 104.187431
[L_mid_hand02]
12 105.572853 -4.139662 -10.864139 -151.173050 35.530895 -45.962498 106.211075
13 105.572853 -4.139662 -10.864139 -145.238556 29.793247 -35.005478 106.211075
[L_mid_hand03]
12 104.641464 17.579376 -3.913581 -12.471080 14.135606 51.737537 106.179977
13 104.641464 17.579376 -3.913581 -14.885756 11.561832 40.920109 106.179977
[null_rope02_connect]
12 328.732849 0.000179 -0.000119 -162.046616 60.344955 30.905397 328.732849
13 328.732849 0.000179 -0.000119 -160.279480 62.773743 41.412743 328.732849
[Rope2_Seg01]
12 0.000032 0.000020 0.000000 -66.579773 -32.691746 81.027168 0.000038
13 0.000027 0.000011 0.000000 -67.108368 -39.866608 73.612091 0.000029
[Rope2_Seg02]
12 139.999741 -0.000060 -0.000119 6.957849 8.498338 6.588543 139.999756
13 139.999741 -0.000060 -0.000119 5.217832 6.630404 6.416634 139.999756
[Rope2_Seg03]
12 140.000107 0.000030 0.000000 8.427822 15.333003 9.461420 140.000107
13 140.000107 0.000030 0.000000 7.202302 12.125197 10.021570 140.000107
[Rope2_Seg04]
12 139.999802 0.000000 -0.000060 5.674850 24.490944 9.505373 139.999802
13 139.999802 0.000000 -0.000060 7.298296 21.943287 13.981884 139.999802
[Rope2_Seg05]
12 139.999985 -0.000060 0.000119 -0.007630 17.436850 8.037720 139.999985
13 139.999985 -0.000060 0.000119 1.028139 18.704634 10.269248 139.999985
[Rope2_Seg06]
12 139.999893 -0.000030 -0.000119 -3.652986 17.181139 15.384580 139.999893
13 139.999893 -0.000030 -0.000119 -2.793129 17.586679 14.373260 139.999893
[Rope2_Seg07]
12 139.999893 0.000060 -0.000060 -7.069725 15.853448 15.870973 139.999893
13 139.999893 0.000060 -0.000060 -8.402271 21.577339 22.718367 139.999893
[Rope2_Seg09]
12 121.338966 0.000089 -0.000060 33.793236 -1.359788 -0.847141 121.338966
13 121.338966 0.000089 -0.000060 33.793236 -1.359788 -0.847141 121.338966
[R_mid_hand01]
12 104.680779 11.144459 -10.335981 -29.640867 38.920425 50.559925 105.778534
13 104.680779 11.144459 -10.335981 -33.103619 36.174534 44.881920 105.778534
[R_mid_hand02]
12 104.070427 2.443552 8.231699 64.935448 -54.170216 21.300570 104.424065
13 104.070427 2.443552 8.231699 67.625153 -49.343384 17.877659 104.424065
[R_mid_hand03]
12 106.028137 -11.221827 -5.996406 -172.843689 14.135135 -60.081200 106.788818
13 106.028137 -11.221827 -5.996406 -171.562683 13.420316 -54.704468 106.788818
[spine02]
12 129.756927 0.001550 0.000119 -0.138435 -4.295379 -5.972017 129.756927
13 129.756927 0.001550 0.000119 -0.153509 -4.280584 -5.754623 129.756927
[spine03]
12 78.662064 0.078849 -4.427714 0.232639 6.386814 -7.385978 78.786613
13 78.654938 0.080088 -4.497293 0.253903 6.169762 -7.096590 78.783447
[pelvis]
12 169.435242 0.051022 0.000000 0.029133 1.877273 -2.550393 169.435257
13 169.435242 0.051022 0.000000 0.030961 1.701566 -2.357406 169.435257
[null_rope03_connect]
12 -1.257226 -2.466202 137.391083 -42.117680 -83.166946 128.266129 137.418976
13 -1.257226 -2.466202 137.391083 -39.552959 -83.130760 124.896240 137.418976
[null_rope04_connect]
12 -1.259640 -2.480268 -137.844437 -42.117680 -83.166946 128.266129 137.872513
13 -1.259640 -2.480268 -137.844437 -39.552959 -83.130760 124.896240 137.872513
[Rope3_Seg01]
12 0.000000 0.000000 0.000000 -130.028900 -12.120661 -3.415874 0.000000
13 0.000000 0.000000 0.000000 -152.907425 -21.304117 -15.777510 0.000000
[Rope3_Seg02]
12 139.999924 -0.000119 0.000060 15.542806 3.423820 24.801170 139.999924
13 139.999924 -0.000119 0.000060 23.755800 -10.875159 19.543482 139.999924
[Rope3_Seg03]
12 139.999924 -0.000119 0.000119 1.400558 8.514085 13.892525 139.999924
13 139.999924 -0.000119 0.000119 7.700194 -0.494623 17.078749 139.999924
[Rope3_Seg04]
12 139.999924 0.000119 0.000000 1.074518 4.332515 9.178758 139.999924
13 139.999924 0.000119 0.000000 2.595086 1.065453 10.240382 139.999924
[Rope3_Seg05]
12 139.999924 -0.000238 0.000060 2.893383 1.400544 19.560728 139.999924
13 139.999924 -0.000238 0.000060 3.103606 -0.251483 18.800558 139.999924
[Rope3_Seg06]
12 139.999893 -0.000119 -0.000060 -0.108028 1.547004 24.102020 139.999893
13 139.999893 -0.000119 -0.000060 -0.121895 0.323953 25.833412 139.999893
[Rope3_Seg07]
12 139.999771 0.000060 -0.000119 -1.447079 1.267234 11.957896 139.999771
13 139.999771 0.000060 -0.000119 -2.074781 0.380369 13.694644 139.999771
[Rope3_Seg08]
12 139.999985 -0.000060 0.000000 -1.187479 0.519835 6.493857 139.999985
13 139.999985 -0.000060 0.000000 -1.686760 -0.055769 7.199018 139.999985
[Rope3_Seg09]
12 90.185997 -0.000179 -0.000060 89.793228 -1.359877 -0.847183 90.185997
13 90.185997 -0.000179 -0.000060 89.793228 -1.359877 -0.847183 90.185997
[R_rear_hand01]
12 103.366196 -6.073594 -10.757982 -161.551193 16.666374 -30.088671 104.101845
13 103.366196 -6.073594 -10.757982 -161.551193 16.666374 -30.088671 104.101845
[R_rear_hand02]
12 100.509819 12.039542 -7.992327 -34.280552 19.289745 28.875523 101.543350
13 100.509819 12.039542 -7.992327 -34.280552 19.289745 28.875523 101.543350
[R_rear_hand03]
12 101.539970 5.215704 5.435467 83.366440 -30.933914 7.284830 101.819031
13 101.539970 5.215704 5.435467 83.366440 -30.933914 7.284830 101.819031
[Rope4_Seg01]
12 0.000002 -0.000086 -0.000042 66.096397 -38.204445 -129.118607 0.000096
13 0.000000 -0.000084 -0.000046 72.931648 -44.167583 -133.467606 0.000096
[Rope4_Seg02]
12 139.999985 0.000060 0.000119 -21.259182 14.062613 -29.183800 139.999985
13 139.999985 0.000060 0.000119 -21.040640 13.332643 -26.669250 139.999985
[Rope4_Seg03]
12 139.999924 0.000000 -0.000238 -7.457555 9.975293 -11.846553 139.999924
13 139.999924 0.000000 -0.000238 -11.343175 16.146221 -15.894034 139.999924
[Rope4_Seg04]
12 139.999985 0.000000 0.000119 -3.911221 9.215492 -6.905324 139.999985
13 139.999985 0.000000 0.000119 -3.473473 9.596674 -6.798096 139.999985
[Rope4_Seg05]
12 139.999802 -0.000060 -0.000119 -5.963363 23.921892 -14.004647 139.999802
13 139.999802 -0.000060 -0.000119 -4.558321 17.766220 -12.816753 139.999802
[Rope4_Seg06]
12 139.999924 0.000000 0.000060 0.864164 26.204254 -13.566279 139.999924
13 139.999924 0.000000 0.000060 -1.621674 27.651844 -19.511000 139.999924
[Rope4_Seg07]
12 139.999802 0.000000 0.000000 3.988993 11.692942 -6.882313 139.999802
13 139.999802 0.000000 0.000000 3.774366 13.300363 -9.674438 139.999802
[Rope4_Seg08]
12 139.999924 0.000000 0.000119 1.305635 5.470989 -3.813831 139.999924
13 139.999924 0.000000 0.000119 1.337735 5.965164 -5.086168 139.999924
[Rope4_Seg09]
12 90.185791 0.000060 0.000060 -135.617828 2.228885 0.850567 90.185791
13 90.185791 0.000060 0.000060 -135.617828 2.228885 0.850567 90.185791
[L_rear_hand01]
12 101.696655 -8.392275 -7.654577 -35.090912 -17.605026 153.690750 102.329041
13 101.696655 -8.392275 -7.654577 -35.091171 -17.604885 153.690750 102.329041
[L_rear_hand02]
12 102.726799 -1.568258 5.773216 83.559425 27.993052 173.103683 102.900848
13 102.726799 -1.568258 5.773216 83.559357 27.992889 173.103531 102.900848
[L_rear_hand03]
12 104.552910 9.721220 -10.420293 -160.739319 -15.710142 -152.828796 105.519653
13 104.552910 9.721220 -10.420293 -160.739304 -15.710106 -152.829010 105.519653
